<svg width="1008" height="1433" viewBox="0 0 1008 1433" fill="none" xmlns="http://www.w3.org/2000/svg">
<g filter="url(#filter0_d_1_398)">
<path d="M4 1372.49V1331.8C49.4344 1324.57 78.6913 1298.65 91.7705 1254.04C99.2397 1230.53 102.969 1188.64 102.969 1128.37V40.6953H15.1982V0H334.534L504.465 879.728L665.068 0H1004V40.6953H914.359V1331.8H1004V1372.49H613.713V1331.8H707.083V52.4389L468.049 1372.49H412.965L160.863 54.2497V1113C160.863 1205.22 169.726 1264.14 187.475 1289.76C205.213 1315.38 237.734 1329.39 285.049 1331.8V1372.49H4Z" fill="black"/>
</g>
<path d="M117.168 1385.99C111.679 1387.69 108.669 1392.44 109.289 1398.34C109.809 1403.14 112.487 1405.99 120.742 1410.7C128.664 1415.22 131.575 1418.12 131.575 1421.58C131.575 1423.93 129.716 1427.07 127.469 1428.59C125.754 1429.75 125.09 1429.93 122.313 1429.89C117.732 1429.83 114.014 1427.85 110.672 1423.66C109.809 1422.55 109.532 1422.46 108.913 1422.92C107.718 1423.89 108.094 1424.85 110.573 1427.16C114.202 1430.53 117.5 1431.81 122.745 1431.87C126.518 1431.87 127.326 1431.73 129.428 1430.67C134.053 1428.31 136.443 1424.49 136.543 1419.22C136.587 1416.83 136.344 1415.72 135.293 1413.7C133.909 1410.93 131.862 1409.17 126.086 1405.81C116.304 1400.14 113.914 1397.78 113.914 1394C113.914 1393.04 114.346 1391.56 114.877 1390.73C117.732 1386.21 124.415 1386.35 129.472 1391.15C131.342 1392.9 131.431 1392.94 132.194 1392.12C132.958 1391.33 132.914 1391.19 131.198 1389.58C130.236 1388.65 128.377 1387.45 127.038 1386.91C124.46 1385.79 119.314 1385.33 117.168 1385.99Z" fill="black"/>
<path d="M232.089 1386.2C226.269 1388.32 223.547 1393.86 225.118 1400.31C225.926 1403.49 229.179 1406.68 235.376 1410.22C244.881 1415.67 246.884 1417.74 246.784 1421.85C246.64 1426.73 242.867 1430 237.478 1429.87C233.705 1429.78 230.85 1428.44 227.508 1425.12C224.83 1422.49 224.786 1422.45 223.978 1423.32C223.159 1424.19 223.215 1424.33 225.406 1426.59C226.789 1428.02 228.836 1429.46 230.794 1430.38C233.616 1431.72 234.38 1431.86 238.241 1431.86C241.959 1431.86 242.867 1431.66 244.969 1430.6C246.308 1429.96 247.979 1428.76 248.698 1427.93C251.177 1425.12 251.553 1423.87 251.608 1419.21C251.608 1412.2 250.502 1410.96 237.721 1403.54C234.324 1401.55 230.983 1398.75 230.086 1397.04C228.98 1394.96 229.223 1392.1 230.651 1390.3C233.904 1386.16 239.669 1386.43 244.825 1391.04C246.828 1392.84 246.972 1392.89 247.736 1392.06C248.499 1391.28 248.411 1391.14 246.54 1389.52C245.5 1388.56 243.586 1387.4 242.391 1386.9C239.437 1385.65 234.523 1385.32 232.089 1386.2Z" fill="black"/>
<path d="M11.7177 1386.24C11.43 1386.57 12.0939 1388.28 14.9599 1394.22C15.8672 1396.11 16.5754 1397.73 16.5754 1397.87C16.5754 1397.97 17.1508 1399.25 17.8258 1400.68C19.0098 1403.13 19.6848 1404.7 21.4995 1408.62C21.8757 1409.49 22.6835 1411.24 23.2589 1412.53C23.8786 1413.78 25.1732 1416.59 26.1691 1418.71L27.9395 1422.59L29.4666 1419.41C30.2743 1417.65 30.9936 1415.91 31.0379 1415.44C31.0821 1414.75 21.1122 1392.47 18.7221 1388.09C17.7705 1386.29 17.7262 1386.24 14.8603 1386.11C13.289 1386.02 11.8505 1386.11 11.7177 1386.24Z" fill="black"/>
<path d="M52.129 1386.6C51.9852 1386.92 51.9409 1397.16 51.9852 1409.33L52.129 1431.47H58.3367V1386.27L55.3269 1386.14C53.2356 1386.05 52.2729 1386.19 52.129 1386.6Z" fill="black"/>
<path d="M65.5265 1386.47C65.2941 1386.79 78.4176 1409.43 79.5574 1410.63C79.9447 1411.09 82.8991 1406.57 82.8549 1405.51C82.8549 1405.09 80.3209 1400.58 77.2668 1395.5L71.6346 1386.27L68.7244 1386.14C67.1088 1386.05 65.6703 1386.19 65.5265 1386.47Z" fill="black"/>
<path d="M98.3538 1386.4C97.878 1386.73 92.8653 1394.52 84.6106 1407.79L80.9922 1413.65L81.0807 1422.55L81.2246 1431.45H87.4322L87.6646 1422.41L87.908 1413.42L94.7796 1402.35C98.5972 1396.32 102.315 1390.41 103.034 1389.31C104.993 1386.31 104.849 1386.03 101.651 1386.03C100.124 1386.03 98.6415 1386.21 98.3538 1386.4Z" fill="black"/>
<path d="M141.348 1386.57C141.204 1386.89 141.16 1397.12 141.204 1409.29L141.348 1431.43L154.239 1431.57C161.343 1431.61 167.595 1431.57 168.215 1431.43C168.79 1431.29 169.266 1430.87 169.266 1430.51C169.266 1429.91 167.783 1429.81 159.296 1429.81C153.807 1429.81 148.983 1429.67 148.551 1429.53C147.887 1429.31 147.788 1427.93 147.788 1418.94V1408.61H156.861C165.592 1408.61 165.924 1408.55 165.924 1407.69C165.924 1406.81 165.548 1406.77 157.005 1406.67L148.031 1406.53V1388.09L158.676 1387.95C168.502 1387.85 169.31 1387.77 169.177 1387.03C169.033 1386.29 167.883 1386.24 155.29 1386.11C144.546 1386.01 141.492 1386.11 141.348 1386.57Z" fill="black"/>
<path d="M177.398 1409.3V1432.58H180.264V1393.8L197.969 1413.17C212.099 1428.67 215.917 1432.58 216.824 1432.58H217.964V1386.01H215.098L215.01 1403.77L214.866 1421.56L198.5 1403.77L182.179 1386.01H177.398V1409.3Z" fill="black"/>
<path d="M256.856 1386.59C256.712 1386.91 256.667 1397.14 256.712 1409.32L256.856 1431.45L270.167 1431.59C283.147 1431.68 284.774 1431.54 284.774 1430.25C284.774 1430.02 280.292 1429.83 274.804 1429.83C269.315 1429.83 264.491 1429.69 264.059 1429.56C263.395 1429.33 263.296 1427.95 263.296 1418.96V1408.63H272.369C281.1 1408.63 281.432 1408.58 281.432 1407.71C281.432 1406.83 281.056 1406.79 272.513 1406.69L263.539 1406.55V1388.11L274.184 1387.97C280.004 1387.92 284.774 1387.69 284.774 1387.51C284.774 1386.17 283.346 1386.03 270.366 1386.03C260.153 1386.03 256.999 1386.17 256.856 1386.59Z" fill="black"/>
<path d="M6.15886 1411.47L6.30271 1431.45H12.5104L12.6542 1418.07L12.7428 1404.7L9.78831 1398.16C8.11743 1394.56 6.63467 1391.56 6.4023 1391.56C6.21419 1391.56 6.1146 1400.56 6.15886 1411.47Z" fill="black"/>
<path d="M42.129 1397.23C40.8454 1400.04 36.9283 1408.66 33.4427 1416.31C29.9128 1423.98 27.0469 1430.57 27.0469 1430.94C27.0469 1431.53 27.6223 1431.67 29.9128 1431.67C32.3472 1431.67 32.8673 1431.53 33.4427 1430.61C33.83 1430.06 36.6406 1424.16 39.6503 1417.51L45.183 1405.44V1398.7C45.183 1395.01 45.0392 1392.01 44.8511 1392.01C44.6076 1392.01 43.4126 1394.37 42.129 1397.23Z" fill="black"/>
<defs>
<filter id="filter0_d_1_398" x="0" y="0" width="1008" height="1380.49" filterUnits="userSpaceOnUse" color-interpolation-filters="sRGB">
<feFlood flood-opacity="0" result="BackgroundImageFix"/>
<feColorMatrix in="SourceAlpha" type="matrix" values="0 0 0 0 0 0 0 0 0 0 0 0 0 0 0 0 0 0 127 0" result="hardAlpha"/>
<feOffset dy="4"/>
<feGaussianBlur stdDeviation="2"/>
<feComposite in2="hardAlpha" operator="out"/>
<feColorMatrix type="matrix" values="0 0 0 0 0 0 0 0 0 0 0 0 0 0 0 0 0 0 0.25 0"/>
<feBlend mode="normal" in2="BackgroundImageFix" result="effect1_dropShadow_1_398"/>
<feBlend mode="normal" in="SourceGraphic" in2="effect1_dropShadow_1_398" result="shape"/>
</filter>
</defs>
</svg>
