<svg width="169" height="382" viewBox="0 0 169 382" fill="none" xmlns="http://www.w3.org/2000/svg">
<path d="M4.54102 310V303.408C11.6699 302.236 16.2598 298.037 18.3105 290.811C19.4824 287.002 20.0684 280.215 20.0684 270.449V94.2285H6.29883V87.6367H56.3965L83.0566 230.166L108.252 87.6367H161.426V94.2285H147.363V303.408H161.426V310H100.195V303.408H114.844V96.1328L77.3438 310H68.7012L29.1504 96.4258V267.959C29.1504 282.9 30.5176 292.471 33.252 296.67C36.084 300.771 41.2109 303.018 48.6328 303.408V310H4.54102Z" fill="black"/>
<path d="M21.9308 312.05C21.0445 312.341 20.5589 313.151 20.6591 314.158C20.7439 314.976 21.1755 315.463 22.5088 316.265C23.7882 317.036 24.2583 317.532 24.2583 318.121C24.2583 318.522 23.9577 319.057 23.5955 319.317C23.3181 319.513 23.2102 319.545 22.7631 319.537C22.0233 319.529 21.4221 319.191 20.8826 318.475C20.7439 318.286 20.6976 318.271 20.5974 318.349C20.4048 318.515 20.4664 318.68 20.8672 319.073C21.4529 319.647 21.9847 319.867 22.8325 319.875C23.4414 319.875 23.5724 319.851 23.9115 319.671C24.6591 319.269 25.0445 318.617 25.0599 317.72C25.0676 317.311 25.029 317.123 24.8595 316.777C24.636 316.305 24.3046 316.006 23.372 315.432C21.792 314.465 21.4067 314.064 21.4067 313.419C21.4067 313.254 21.4761 313.002 21.5608 312.86C22.0233 312.09 23.1023 312.113 23.9192 312.931C24.2198 313.23 24.2352 313.238 24.3585 313.096C24.4818 312.963 24.4741 312.939 24.1967 312.664C24.0425 312.506 23.7419 312.302 23.5261 312.208C23.11 312.019 22.2776 311.94 21.9308 312.05Z" fill="black"/>
<path d="M40.4897 312.09C39.5494 312.451 39.1101 313.395 39.3645 314.496C39.4955 315.039 40.0196 315.581 41.0215 316.187C42.5552 317.115 42.8789 317.469 42.8635 318.169C42.8404 319.002 42.2315 319.56 41.3606 319.537C40.7517 319.521 40.2893 319.293 39.7498 318.727C39.3182 318.279 39.3105 318.271 39.1795 318.42C39.0485 318.57 39.0562 318.593 39.4107 318.979C39.6342 319.222 39.9656 319.466 40.2816 319.623C40.7363 319.851 40.8596 319.875 41.4839 319.875C42.0851 319.875 42.2315 319.844 42.5706 319.663C42.7864 319.553 43.0562 319.348 43.1718 319.207C43.5725 318.727 43.6342 318.515 43.6419 317.72C43.6419 316.525 43.4646 316.313 41.3991 315.047C40.8519 314.708 40.3124 314.229 40.166 313.938C39.9887 313.584 40.0273 313.096 40.2585 312.79C40.7826 312.082 41.7151 312.129 42.5475 312.915C42.8712 313.222 42.8943 313.23 43.0176 313.088C43.1409 312.955 43.1255 312.931 42.8249 312.656C42.6554 312.491 42.3471 312.294 42.1544 312.208C41.6766 311.995 40.8828 311.94 40.4897 312.09Z" fill="black"/>
<path d="M4.89653 312.096C4.85029 312.151 4.95819 312.442 5.42061 313.457C5.56705 313.779 5.68266 314.054 5.68266 314.078C5.68266 314.094 5.77514 314.314 5.88304 314.558C6.07572 314.974 6.18362 315.242 6.47649 315.91C6.53815 316.06 6.66917 316.358 6.76165 316.579C6.86185 316.791 7.06994 317.271 7.23179 317.632L7.51695 318.293L7.76358 317.75C7.8946 317.452 8.01021 317.153 8.01791 317.074C8.02562 316.956 6.41483 313.158 6.02948 312.411C5.87533 312.104 5.86763 312.096 5.4052 312.073C5.15087 312.057 4.91965 312.073 4.89653 312.096Z" fill="black"/>
<path d="M11.4205 312.149C11.3974 312.204 11.3897 313.95 11.3974 316.026L11.4205 319.801H11.9215H12.4225V315.947V312.094L11.9369 312.07C11.5978 312.055 11.4437 312.078 11.4205 312.149Z" fill="black"/>
<path d="M13.5904 312.128C13.5518 312.183 15.6713 316.044 15.8563 316.248C15.9179 316.327 16.3958 315.556 16.388 315.375C16.388 315.305 15.9796 314.534 15.4863 313.669L14.5769 312.096L14.1067 312.073C13.8447 312.057 13.6135 312.08 13.5904 312.128Z" fill="black"/>
<path d="M18.8952 312.118C18.8182 312.173 18.0089 313.502 16.6756 315.767L16.0898 316.765L16.1053 318.283L16.1284 319.801H16.6293H17.1303L17.1688 318.259L17.2074 316.726L18.3172 314.839C18.9338 313.808 19.5349 312.802 19.6505 312.613C19.9665 312.102 19.9434 312.055 19.427 312.055C19.1804 312.055 18.9415 312.086 18.8952 312.118Z" fill="black"/>
<path d="M25.8346 312.152C25.8115 312.207 25.8038 313.953 25.8115 316.029L25.8346 319.804L27.9155 319.827C29.0639 319.835 30.0735 319.827 30.1737 319.804C30.2662 319.78 30.3433 319.709 30.3433 319.646C30.3433 319.544 30.1043 319.528 28.7325 319.528C27.8462 319.528 27.0677 319.505 26.9984 319.481C26.8905 319.442 26.8751 319.206 26.8751 317.672V315.911H28.3394C29.7498 315.911 29.8038 315.903 29.8038 315.754C29.8038 315.604 29.7421 315.596 28.3625 315.581L26.9136 315.557V313.984V312.411L28.6323 312.388C30.22 312.372 30.351 312.356 30.3279 312.231C30.3047 312.105 30.1198 312.097 28.0851 312.073C26.351 312.058 25.8577 312.073 25.8346 312.152Z" fill="black"/>
<path d="M31.6523 316.029V320H31.8836H32.1148V316.689V313.386L34.9741 316.689C37.2554 319.332 37.872 320 38.0184 320H38.2034V316.029V312.057H37.9722H37.741L37.7256 315.085L37.7024 318.121L35.0589 315.085L32.4231 312.057H32.0377H31.6523V316.029Z" fill="black"/>
<path d="M44.4909 312.151C44.4677 312.206 44.46 313.952 44.4677 316.028L44.4909 319.803L46.6411 319.826C48.7375 319.842 48.9995 319.818 48.9995 319.598C48.9995 319.559 48.2751 319.527 47.3887 319.527C46.5024 319.527 45.724 319.504 45.6546 319.48C45.5467 319.441 45.5313 319.205 45.5313 317.671V315.91H46.9957C48.4061 315.91 48.46 315.902 48.46 315.753C48.46 315.603 48.3984 315.595 47.0188 315.58L45.5699 315.556V313.983V312.41L47.2885 312.387C48.2288 312.379 48.9995 312.34 48.9995 312.308C48.9995 312.08 48.7683 312.057 46.672 312.057C45.0226 312.057 44.514 312.08 44.4909 312.151Z" fill="black"/>
<path d="M4.00196 316.396L4.02509 319.801H4.52605H5.02701L5.05013 317.52L5.06555 315.24L4.58771 314.123C4.31796 313.51 4.07904 312.998 4.0405 312.998C4.00967 312.998 3.99426 314.532 4.00196 316.396Z" fill="black"/>
<path d="M9.81436 313.967C9.60626 314.447 8.97428 315.918 8.41166 317.223C7.84133 318.529 7.37891 319.653 7.37891 319.716C7.37891 319.818 7.47139 319.842 7.84133 319.842C8.2344 319.842 8.31917 319.818 8.41166 319.661C8.47332 319.567 8.92804 318.56 9.41359 317.428L10.3076 315.367V314.219C10.3076 313.59 10.2845 313.079 10.2537 313.079C10.2151 313.079 10.0224 313.48 9.81436 313.967Z" fill="black"/>
</svg>
