<svg width="83" height="111" viewBox="0 0 83 111" fill="none" xmlns="http://www.w3.org/2000/svg">
<path d="M0 105.522V102.394C3.77106 101.838 6.19938 99.845 7.28496 96.4155C7.90489 94.6081 8.2144 91.387 8.2144 86.7531V3.12881H0.929447V0H27.4343L41.5386 67.6368L54.8686 0H83V3.12881H75.5598V102.394H83V105.522H50.6062V102.394H58.3559V4.0317L38.516 105.522H33.9441L13.0196 4.17092V85.5718C13.0196 92.6615 13.7553 97.1916 15.2284 99.1613C16.7007 101.131 19.3999 102.209 23.3271 102.394V105.522H0Z" fill="black"/>
<path d="M12.2035 4.53766C12.1521 4.55743 12.0474 4.59368 11.8913 4.6464C11.5138 4.77986 10.757 5.04595 9.62093 5.44384C9.62093 5.44384 9.62093 5.44467 9.62093 5.44714C9.94146 5.55671 10.5798 5.77749 11.5349 6.10948C11.647 6.14902 11.8702 6.22811 12.2035 6.34673C12.2035 6.39451 12.2035 6.48843 12.2035 6.62683C12.2035 6.62683 12.2035 6.62765 12.2035 6.63012C12.2035 6.63012 12.2035 6.63177 12.2035 6.63671C11.7085 6.45877 10.7212 6.10783 9.24254 5.58554C9.23703 5.58307 9.226 5.57895 9.20947 5.57236C9.20947 5.52787 9.20947 5.4422 9.20947 5.31533C9.20947 5.31039 9.36193 5.25602 9.66869 5.15057C10.2289 4.94791 11.0739 4.64805 12.2035 4.25098C12.2035 4.29876 12.2035 4.39432 12.2035 4.53766Z" fill="white"/>
<path d="M12.2035 7.42712C12.2035 7.46831 12.2035 7.55317 12.2035 7.68085C11.7039 7.68085 10.7056 7.68085 9.20947 7.68085C9.20947 7.63637 9.20947 7.55234 9.20947 7.42712C9.20947 7.42465 9.20947 7.42383 9.20947 7.42383C9.7091 7.42383 10.7065 7.42383 12.2035 7.42383C12.2035 7.42383 12.2035 7.42465 12.2035 7.42712Z" fill="white"/>
<path d="M12.2035 8.72497C12.2035 8.94411 12.2035 9.38814 12.2035 10.0562C12.2035 10.0562 12.2035 10.0571 12.2035 10.0595C12.1539 10.0595 12.0603 10.0595 11.9207 10.0595C11.9179 10.0571 11.917 10.0562 11.917 10.0562C11.917 9.87583 11.917 9.51665 11.917 8.97871C11.7407 8.97871 11.3843 8.97871 10.8479 8.97871C10.8479 9.12122 10.8479 9.40791 10.8479 9.83876C10.8479 9.83876 10.8461 9.83958 10.8443 9.84205C10.7974 9.84205 10.7056 9.84205 10.5687 9.84205C10.5632 9.83958 10.5614 9.83876 10.5614 9.83876C10.5614 9.69542 10.5614 9.40873 10.5614 8.97871C10.3851 8.97871 10.0296 8.97871 9.49602 8.97871C9.49602 9.15665 9.49602 9.51583 9.49602 10.0562C9.49602 10.0562 9.49418 10.0571 9.49235 10.0595C9.44551 10.0595 9.35091 10.0595 9.20947 10.0595C9.20947 10.0571 9.20947 10.0562 9.20947 10.0562C9.20947 9.83382 9.20947 9.39061 9.20947 8.72497C9.20947 8.7225 9.20947 8.72168 9.20947 8.72168C9.7091 8.72168 10.7065 8.72168 12.2035 8.72168C12.2035 8.72168 12.2035 8.7225 12.2035 8.72497Z" fill="white"/>
<path d="M12.2035 10.6934C12.2035 10.9743 12.2035 11.5378 12.2035 12.3838C12.2035 12.3855 12.2035 12.3871 12.2035 12.3871C12.1539 12.3871 12.0603 12.3871 11.9207 12.3871C11.9179 12.3871 11.917 12.3855 11.917 12.3838C11.917 12.2668 11.917 12.0287 11.917 11.6687C11.466 11.6687 10.5632 11.6687 9.20947 11.6687C9.20947 11.6687 9.20947 11.6671 9.20947 11.6654C9.20947 11.6234 9.20947 11.5386 9.20947 11.4117C9.66226 11.4117 10.5651 11.4117 11.917 11.4117C11.917 11.2931 11.917 11.0534 11.917 10.6934C11.917 10.6934 11.9179 10.6934 11.9207 10.6934C11.9666 10.6934 12.0612 10.6934 12.2035 10.6934Z" fill="white"/>
<path d="M12.2035 13.1462C12.2035 13.1965 12.2035 13.3011 12.2035 13.4593C12.1907 13.4675 11.5974 13.7954 10.4218 14.4413C10.2528 14.5335 10.0002 14.6719 9.66501 14.8565C9.66501 14.8565 9.66501 14.8573 9.66501 14.8598C10.0857 14.8598 10.9306 14.8598 12.1999 14.8598C12.1999 14.8598 12.2008 14.8606 12.2035 14.863C12.2035 14.9042 12.2035 14.9883 12.2035 15.1135C12.2035 15.1135 12.2017 15.1143 12.1999 15.1168C11.7002 15.1168 10.7047 15.1168 9.21315 15.1168C9.21315 15.1168 9.21131 15.1151 9.20947 15.1135C9.20947 15.0608 9.20947 14.9586 9.20947 14.807C9.23151 14.7889 9.31325 14.7444 9.45561 14.6719C9.46296 14.6653 10.0581 14.3375 11.241 13.6899C11.3558 13.6282 11.5248 13.5351 11.748 13.4099C11.3264 13.4099 10.4815 13.4099 9.21315 13.4099C9.21315 13.4074 9.21131 13.4049 9.20947 13.4033C9.20947 13.3588 9.20947 13.2731 9.20947 13.1462C9.20947 13.1438 9.21039 13.1413 9.21315 13.1396C9.71277 13.1396 10.7083 13.1396 12.1999 13.1396C12.1999 13.1396 12.2008 13.1413 12.2035 13.1462Z" fill="white"/>
<path d="M12.2035 17.2209C12.2035 17.2226 12.1521 17.2415 12.0492 17.2769C11.4321 17.4895 10.5081 17.8116 9.27927 18.2424C9.26642 18.2466 9.24345 18.2556 9.20947 18.2688C9.20947 18.2688 9.20947 18.2671 9.20947 18.2655C9.20947 18.2194 9.20947 18.1271 9.20947 17.9887C9.21866 17.9821 9.37295 17.9269 9.67236 17.8239C9.8239 17.7729 9.9038 17.7449 9.91115 17.7383C9.91115 17.4458 9.91115 17.0084 9.91115 16.4268C9.90105 16.4202 9.71736 16.3551 9.36009 16.2324C9.26642 16.201 9.21682 16.1829 9.20947 16.1763C9.20947 16.117 9.20947 16.0281 9.20947 15.9094C9.20947 15.9094 9.20947 15.9078 9.20947 15.9061C9.20947 15.9061 9.20947 15.9045 9.20947 15.9028C9.7091 16.0783 10.7065 16.4276 12.2035 16.9507C12.2035 16.9944 12.2035 17.0842 12.2035 17.2209ZM11.7958 17.0825C11.5313 16.9903 11.0004 16.8041 10.205 16.5256C10.205 16.7118 10.205 17.0842 10.205 17.6427C10.4696 17.548 10.9995 17.361 11.7958 17.0825Z" fill="white"/>
<path d="M12.2035 19.0549C12.2035 19.1118 12.2035 19.2238 12.2035 19.391C12.2035 19.3976 12.119 19.4306 11.9501 19.4899C11.433 19.6785 10.6615 19.9628 9.63562 20.3434C9.63562 20.3434 9.63562 20.3442 9.63562 20.3467C10.0636 20.5024 10.9196 20.8162 12.2035 21.2891C12.2035 21.3484 12.2035 21.4637 12.2035 21.6351C12.2035 21.6351 12.2017 21.6359 12.1999 21.6384C11.7002 21.6384 10.7047 21.6384 9.21315 21.6384C9.21315 21.6384 9.21131 21.6367 9.20947 21.6351C9.20947 21.5906 9.20947 21.5041 9.20947 21.3748C9.20947 21.3748 9.21039 21.3723 9.21315 21.3682C9.62185 21.3682 10.4365 21.3682 11.6562 21.3682C11.6562 21.3657 11.6562 21.3649 11.6562 21.3649C11.2493 21.2149 10.4337 20.9167 9.20947 20.4686C9.20947 20.4686 9.20947 20.4661 9.20947 20.462C9.20947 20.4241 9.20947 20.345 9.20947 20.2247C9.20947 20.2198 9.27927 20.1934 9.41887 20.1456C9.42071 20.1432 9.9736 19.9397 11.0757 19.536C11.4109 19.4108 11.6056 19.3383 11.6598 19.3185C11.2502 19.3185 10.4347 19.3185 9.21315 19.3185C9.21315 19.3185 9.21131 19.3169 9.20947 19.3153C9.20947 19.2708 9.20947 19.1843 9.20947 19.0549C9.20947 19.0525 9.21039 19.05 9.21315 19.0483C9.71277 19.0483 10.7083 19.0483 12.1999 19.0483C12.1999 19.0483 12.2008 19.05 12.2035 19.0549Z" fill="white"/>
<path d="M9.39332 106.559C8.93778 106.69 8.68797 107.055 8.7394 107.509C8.78256 107.878 9.00482 108.097 9.68997 108.459C10.3476 108.807 10.5891 109.03 10.5891 109.296C10.5891 109.476 10.4348 109.718 10.2484 109.835C10.106 109.924 10.0509 109.938 9.82039 109.934C9.44016 109.93 9.13157 109.778 8.8542 109.456C8.78256 109.37 8.7596 109.363 8.70817 109.399C8.60898 109.473 8.64021 109.547 8.84594 109.725C9.14718 109.984 9.42087 110.083 9.8562 110.087C10.1694 110.087 10.2364 110.076 10.4109 109.994C10.7948 109.813 10.9932 109.519 11.0015 109.115C11.0052 108.931 10.985 108.845 10.8977 108.69C10.7829 108.477 10.613 108.342 10.1336 108.083C9.32168 107.647 9.1233 107.466 9.1233 107.175C9.1233 107.101 9.15912 106.988 9.2032 106.924C9.44016 106.577 9.99489 106.587 10.4146 106.956C10.5698 107.091 10.5772 107.094 10.6405 107.03C10.7039 106.97 10.7002 106.96 10.5579 106.835C10.478 106.764 10.3237 106.672 10.2126 106.63C9.99856 106.544 9.57149 106.509 9.39332 106.559Z" fill="black"/>
<path d="M18.9308 106.577C18.4477 106.74 18.2218 107.166 18.3522 107.662C18.4193 107.907 18.6893 108.151 19.2036 108.424C19.9925 108.842 20.1588 109.002 20.1505 109.318C20.1386 109.693 19.8254 109.945 19.3781 109.935C19.0649 109.927 18.828 109.824 18.5506 109.569C18.3283 109.367 18.3247 109.364 18.2576 109.431C18.1897 109.498 18.1943 109.509 18.3761 109.683C18.4909 109.792 18.6608 109.903 18.8234 109.974C19.0576 110.077 19.1209 110.087 19.4415 110.087C19.7501 110.087 19.8254 110.072 19.9999 109.991C20.111 109.941 20.2497 109.849 20.3094 109.786C20.5151 109.569 20.5463 109.474 20.5509 109.115C20.5509 108.576 20.4591 108.481 19.3983 107.91C19.1164 107.758 18.839 107.542 18.7646 107.411C18.6728 107.251 18.693 107.031 18.8114 106.893C19.0815 106.574 19.56 106.595 19.9879 106.949C20.1542 107.088 20.1661 107.091 20.2295 107.028C20.2929 106.967 20.2855 106.957 20.1303 106.832C20.044 106.758 19.8851 106.669 19.7859 106.631C19.5407 106.535 19.1329 106.509 18.9308 106.577Z" fill="black"/>
<path d="M0.639378 106.58C0.615499 106.605 0.670605 106.736 0.908477 107.194C0.983788 107.339 1.04257 107.463 1.04257 107.474C1.04257 107.481 1.09033 107.58 1.14635 107.689C1.24462 107.878 1.30064 107.998 1.45127 108.3C1.48249 108.367 1.54954 108.502 1.5973 108.601C1.64873 108.697 1.75618 108.913 1.83884 109.076L1.98579 109.374L2.11253 109.129C2.17958 108.994 2.23928 108.86 2.24295 108.825C2.24662 108.771 1.41912 107.058 1.22074 106.722C1.14176 106.584 1.13808 106.58 0.900211 106.57C0.769795 106.562 0.650399 106.57 0.639378 106.58Z" fill="black"/>
<path d="M3.99377 106.606C3.98183 106.63 3.97816 107.417 3.98183 108.353L3.99377 110.055H4.50901V106.58L4.2592 106.57C4.08561 106.563 4.00571 106.573 3.99377 106.606Z" fill="black"/>
<path d="M5.1067 106.595C5.08741 106.62 6.17666 108.36 6.27126 108.453C6.30341 108.488 6.54863 108.14 6.54495 108.059C6.54495 108.027 6.33463 107.68 6.08115 107.289L5.61367 106.58L5.37212 106.57C5.23803 106.563 5.11864 106.574 5.1067 106.595Z" fill="black"/>
<path d="M7.83164 106.591C7.79214 106.617 7.3761 107.215 6.69095 108.236L6.39062 108.687L6.39797 109.371L6.40991 110.055H6.92515L6.94444 109.36L6.96464 108.669L7.53498 107.818C7.85184 107.354 8.16043 106.9 8.22013 106.815C8.38269 106.584 8.37075 106.563 8.10533 106.563C7.97858 106.563 7.85551 106.577 7.83164 106.591Z" fill="black"/>
<path d="M11.401 106.605C11.3891 106.63 11.3854 107.417 11.3891 108.353L11.401 110.055L12.471 110.065C13.0606 110.069 13.5795 110.065 13.6309 110.055C13.6787 110.044 13.7182 110.012 13.7182 109.984C13.7182 109.938 13.5951 109.93 12.8907 109.93C12.4351 109.93 12.0347 109.92 11.9989 109.909C11.9438 109.892 11.9355 109.785 11.9355 109.094V108.3H12.6886C13.4133 108.3 13.4408 108.296 13.4408 108.229C13.4408 108.162 13.4096 108.158 12.7006 108.151L11.9557 108.14V106.722L12.8393 106.712C13.6548 106.704 13.7219 106.698 13.7108 106.641C13.6989 106.584 13.6034 106.58 12.5582 106.57C11.6664 106.563 11.4129 106.57 11.401 106.605Z" fill="black"/>
<path d="M14.3911 108.353V110.143H14.629V107.162L16.0985 108.651C17.2713 109.843 17.5882 110.143 17.6635 110.143H17.7581V106.563H17.5202L17.5128 107.928L17.5009 109.296L16.1426 107.928L14.7879 106.563H14.3911V108.353Z" fill="black"/>
<path d="M20.9864 106.606C20.9745 106.631 20.9708 107.417 20.9745 108.353L20.9864 110.055L22.0913 110.066C23.1686 110.072 23.3036 110.062 23.3036 109.963C23.3036 109.945 22.9317 109.931 22.4761 109.931C22.0206 109.931 21.6202 109.92 21.5843 109.909C21.5292 109.892 21.521 109.786 21.521 109.095V108.3H22.2741C22.9987 108.3 23.0263 108.296 23.0263 108.23C23.0263 108.162 22.995 108.159 22.286 108.151L21.5412 108.141V106.723L22.4247 106.712C22.9078 106.708 23.3036 106.691 23.3036 106.677C23.3036 106.574 23.1852 106.563 22.1078 106.563C21.2601 106.563 20.9984 106.574 20.9864 106.606Z" fill="black"/>
<path d="M0.179576 108.519L0.191516 110.055H0.706753L0.718692 109.027L0.72604 107.999L0.48082 107.495C0.342138 107.218 0.219069 106.988 0.199782 106.988C0.184168 106.988 0.175902 107.68 0.179576 108.519Z" fill="black"/>
<path d="M3.16637 107.424C3.05983 107.64 2.73471 108.303 2.4454 108.891C2.15242 109.48 1.91455 109.987 1.91455 110.016C1.91455 110.061 1.96231 110.072 2.15242 110.072C2.35448 110.072 2.39764 110.061 2.4454 109.99C2.47755 109.948 2.71083 109.494 2.96064 108.984L3.41985 108.055V107.537C3.41985 107.254 3.40791 107.023 3.3923 107.023C3.37209 107.023 3.2729 107.204 3.16637 107.424Z" fill="black"/>
</svg>
