<svg width="1008" height="1448" viewBox="0 0 1008 1448" fill="none" xmlns="http://www.w3.org/2000/svg">
<g filter="url(#filter0_d_26_37)">
<path d="M4 1386.32V1345.23C49.4344 1337.92 78.6913 1311.74 91.7705 1266.68C99.2397 1242.94 102.969 1200.62 102.969 1139.74V41.1055H15.1982V0H334.534L504.465 888.595L665.068 0H1004V41.1055H914.359V1345.23H1004V1386.32H613.713V1345.23H707.083V52.9674L468.049 1386.32H412.965L160.863 54.7965V1124.22C160.863 1217.36 169.726 1276.88 187.475 1302.76C205.213 1328.63 237.734 1342.79 285.049 1345.23V1386.32H4Z" fill="white"/>
</g>
<path d="M117.168 1399.96C111.679 1401.68 108.669 1406.48 109.289 1412.44C109.809 1417.29 112.487 1420.17 120.742 1424.92C128.664 1429.49 131.575 1432.42 131.575 1435.92C131.575 1438.29 129.716 1441.46 127.469 1442.99C125.754 1444.16 125.09 1444.35 122.313 1444.3C117.732 1444.25 114.014 1442.25 110.672 1438.02C109.809 1436.89 109.532 1436.8 108.913 1437.27C107.718 1438.24 108.094 1439.22 110.573 1441.55C114.202 1444.95 117.5 1446.25 122.745 1446.31C126.518 1446.31 127.326 1446.16 129.428 1445.09C134.053 1442.71 136.443 1438.85 136.543 1433.53C136.587 1431.12 136.344 1430 135.293 1427.95C133.909 1425.16 131.862 1423.38 126.086 1419.98C116.304 1414.26 113.914 1411.88 113.914 1408.06C113.914 1407.08 114.346 1405.59 114.877 1404.76C117.732 1400.19 124.415 1400.33 129.472 1405.18C131.342 1406.94 131.431 1406.99 132.194 1406.15C132.958 1405.36 132.914 1405.22 131.198 1403.59C130.236 1402.66 128.377 1401.44 127.038 1400.89C124.46 1399.77 119.314 1399.3 117.168 1399.96Z" fill="white"/>
<path d="M232.089 1400.17C226.269 1402.31 223.547 1407.9 225.118 1414.42C225.926 1417.63 229.179 1420.85 235.376 1424.43C244.881 1429.93 246.884 1432.03 246.784 1436.17C246.64 1441.11 242.867 1444.41 237.478 1444.28C233.705 1444.18 230.85 1442.83 227.508 1439.48C224.83 1436.82 224.786 1436.78 223.978 1437.66C223.159 1438.54 223.215 1438.69 225.406 1440.97C226.789 1442.41 228.836 1443.86 230.794 1444.79C233.616 1446.14 234.38 1446.28 238.241 1446.28C241.959 1446.28 242.867 1446.09 244.969 1445.02C246.308 1444.37 247.979 1443.16 248.698 1442.32C251.177 1439.48 251.553 1438.22 251.608 1433.51C251.608 1426.43 250.502 1425.18 237.721 1417.68C234.324 1415.68 230.983 1412.84 230.086 1411.12C228.98 1409.02 229.223 1406.13 230.651 1404.31C233.904 1400.12 239.669 1400.4 244.825 1405.06C246.828 1406.88 246.972 1406.92 247.736 1406.09C248.499 1405.3 248.411 1405.16 246.54 1403.52C245.5 1402.55 243.586 1401.38 242.391 1400.87C239.437 1399.61 234.523 1399.28 232.089 1400.17Z" fill="white"/>
<path d="M11.7177 1400.21C11.43 1400.54 12.0939 1402.27 14.9599 1408.27C15.8672 1410.18 16.5754 1411.81 16.5754 1411.95C16.5754 1412.05 17.1508 1413.35 17.8258 1414.79C19.0098 1417.27 19.6848 1418.85 21.4995 1422.81C21.8757 1423.69 22.6835 1425.46 23.2589 1426.76C23.8786 1428.03 25.1732 1430.86 26.1691 1433.01L27.9395 1436.93L29.4666 1433.71C30.2743 1431.94 30.9936 1430.17 31.0379 1429.71C31.0821 1429 21.1122 1406.5 18.7221 1402.08C17.7705 1400.26 17.7262 1400.21 14.8603 1400.08C13.289 1399.98 11.8505 1400.08 11.7177 1400.21Z" fill="white"/>
<path d="M52.129 1400.57C51.9852 1400.9 51.9409 1411.23 51.9852 1423.53L52.129 1445.89H58.3367V1400.24L55.3269 1400.11C53.2356 1400.01 52.2729 1400.15 52.129 1400.57Z" fill="white"/>
<path d="M65.5265 1400.43C65.2941 1400.76 78.4176 1423.62 79.5574 1424.84C79.9447 1425.3 82.8991 1420.73 82.8549 1419.66C82.8549 1419.24 80.3209 1414.68 77.2668 1409.56L71.6346 1400.24L68.7244 1400.11C67.1088 1400.01 65.6703 1400.15 65.5265 1400.43Z" fill="white"/>
<path d="M98.3538 1400.38C97.878 1400.71 92.8653 1408.58 84.6106 1421.99L80.9922 1427.91L81.0807 1436.89L81.2246 1445.89H87.4322L87.6646 1436.75L87.908 1427.67L94.7796 1416.49C98.5972 1410.4 102.315 1404.44 103.034 1403.32C104.993 1400.29 104.849 1400.01 101.651 1400.01C100.124 1400.01 98.6415 1400.19 98.3538 1400.38Z" fill="white"/>
<path d="M141.348 1400.54C141.204 1400.86 141.16 1411.2 141.204 1423.49L141.348 1445.85L154.239 1445.99C161.343 1446.04 167.595 1445.99 168.215 1445.85C168.79 1445.71 169.266 1445.29 169.266 1444.92C169.266 1444.32 167.783 1444.22 159.296 1444.22C153.807 1444.22 148.983 1444.08 148.551 1443.94C147.887 1443.71 147.788 1442.32 147.788 1433.23V1422.8H156.861C165.592 1422.8 165.924 1422.75 165.924 1421.87C165.924 1420.98 165.548 1420.94 157.005 1420.84L148.031 1420.7V1402.08L158.676 1401.93C168.502 1401.84 169.31 1401.75 169.177 1401C169.033 1400.26 167.883 1400.2 155.29 1400.07C144.546 1399.98 141.492 1400.07 141.348 1400.54Z" fill="white"/>
<path d="M177.398 1423.5V1447.02H180.264V1407.85L197.969 1427.42C212.099 1443.07 215.917 1447.02 216.824 1447.02H217.964V1399.98H215.098L215.01 1417.91L214.866 1435.89L198.5 1417.91L182.179 1399.98H177.398V1423.5Z" fill="white"/>
<path d="M256.856 1400.57C256.712 1400.9 256.667 1411.23 256.712 1423.53L256.856 1445.89L270.167 1446.03C283.147 1446.12 284.774 1445.97 284.774 1444.68C284.774 1444.44 280.292 1444.25 274.804 1444.25C269.315 1444.25 264.491 1444.11 264.059 1443.97C263.395 1443.75 263.296 1442.35 263.296 1433.27V1422.84H272.369C281.1 1422.84 281.432 1422.78 281.432 1421.9C281.432 1421.02 281.056 1420.97 272.513 1420.88L263.539 1420.74V1402.11L274.184 1401.97C280.004 1401.91 284.774 1401.69 284.774 1401.5C284.774 1400.15 283.346 1400.01 270.366 1400.01C260.153 1400.01 256.999 1400.15 256.856 1400.57Z" fill="white"/>
<path d="M6.15886 1425.7L6.30271 1445.87H12.5104L12.6542 1432.36L12.7428 1418.86L9.78831 1412.24C8.11743 1408.61 6.63467 1405.58 6.4023 1405.58C6.21419 1405.58 6.1146 1414.67 6.15886 1425.7Z" fill="white"/>
<path d="M42.129 1411.33C40.8454 1414.16 36.9283 1422.87 33.4427 1430.6C29.9128 1438.34 27.0469 1445 27.0469 1445.37C27.0469 1445.97 27.6223 1446.11 29.9128 1446.11C32.3472 1446.11 32.8673 1445.97 33.4427 1445.04C33.83 1444.49 36.6406 1438.52 39.6503 1431.81L45.183 1419.62V1412.81C45.183 1409.09 45.0392 1406.05 44.8511 1406.05C44.6076 1406.05 43.4126 1408.44 42.129 1411.33Z" fill="white"/>
<defs>
<filter id="filter0_d_26_37" x="0" y="0" width="1008" height="1394.32" filterUnits="userSpaceOnUse" color-interpolation-filters="sRGB">
<feFlood flood-opacity="0" result="BackgroundImageFix"/>
<feColorMatrix in="SourceAlpha" type="matrix" values="0 0 0 0 0 0 0 0 0 0 0 0 0 0 0 0 0 0 127 0" result="hardAlpha"/>
<feOffset dy="4"/>
<feGaussianBlur stdDeviation="2"/>
<feComposite in2="hardAlpha" operator="out"/>
<feColorMatrix type="matrix" values="0 0 0 0 0 0 0 0 0 0 0 0 0 0 0 0 0 0 0.25 0"/>
<feBlend mode="normal" in2="BackgroundImageFix" result="effect1_dropShadow_26_37"/>
<feBlend mode="normal" in="SourceGraphic" in2="effect1_dropShadow_26_37" result="shape"/>
</filter>
</defs>
</svg>
