<svg width="698" height="680" viewBox="0 0 698 680" fill="none" xmlns="http://www.w3.org/2000/svg">
<rect width="698" height="680" fill="white"/>
<path d="M447.107 576.987C444.36 577.866 442.855 580.312 443.166 583.352C443.428 585.822 444.766 587.295 448.898 589.717C452.863 592.045 454.32 593.541 454.32 595.323C454.32 596.534 453.388 598.149 452.266 598.933C451.406 599.527 451.072 599.622 449.686 599.598C447.393 599.574 445.53 598.553 443.858 596.391C443.428 595.821 443.285 595.774 442.975 596.011C442.378 596.51 442.569 597.009 443.811 598.197C445.626 599.93 447.274 600.595 449.901 600.619C451.788 600.619 452.194 600.548 453.245 600.002C455.562 598.79 456.756 596.819 456.804 594.111C456.828 592.876 456.708 592.306 456.183 591.261C455.49 589.836 454.463 588.934 451.573 587.2C446.677 584.278 445.483 583.067 445.483 581.119C445.483 580.621 445.697 579.861 445.96 579.433C447.393 577.106 450.737 577.177 453.269 579.647C454.2 580.549 454.248 580.573 454.63 580.146C455.013 579.742 454.989 579.671 454.129 578.839C453.651 578.364 452.72 577.747 452.051 577.462C450.761 576.892 448.181 576.654 447.107 576.987Z" fill="black"/>
<path d="M504.626 577.106C501.712 578.198 500.351 581.048 501.139 584.373C501.545 586.012 503.169 587.651 506.274 589.48C511.027 592.282 512.03 593.351 511.983 595.465C511.911 597.983 510.024 599.669 507.325 599.598C505.438 599.55 504.005 598.862 502.333 597.151C500.996 595.798 500.972 595.774 500.566 596.225C500.16 596.676 500.184 596.748 501.282 597.912C501.975 598.648 503.002 599.384 503.981 599.859C505.39 600.548 505.773 600.619 507.707 600.619C509.57 600.619 510.024 600.524 511.075 599.978C511.744 599.645 512.58 599.028 512.938 598.6C514.18 597.151 514.371 596.51 514.395 594.111C514.395 590.501 513.846 589.86 507.444 586.036C505.749 585.015 504.077 583.566 503.623 582.687C503.074 581.618 503.193 580.146 503.91 579.219C505.534 577.082 508.424 577.224 511.003 579.599C512.006 580.526 512.078 580.549 512.46 580.122C512.842 579.718 512.795 579.647 511.863 578.816C511.338 578.317 510.382 577.723 509.785 577.462C508.304 576.82 505.844 576.654 504.626 577.106Z" fill="black"/>
<path d="M394.171 577.206C394.028 577.372 394.362 578.251 395.795 581.315C396.249 582.289 396.607 583.12 396.607 583.191C396.607 583.239 396.894 583.904 397.228 584.64C397.825 585.899 398.16 586.706 399.067 588.725C399.258 589.177 399.665 590.079 399.951 590.744C400.262 591.385 400.907 592.834 401.408 593.927L402.292 595.922L403.056 594.283C403.462 593.381 403.82 592.478 403.844 592.24C403.868 591.884 398.876 580.412 397.682 578.156C397.204 577.23 397.181 577.206 395.747 577.135C394.959 577.087 394.243 577.135 394.171 577.206Z" fill="black"/>
<path d="M414.545 577.294C414.474 577.461 414.45 582.733 414.474 589.004L414.545 600.404H416.098H417.65V588.766V577.128L416.146 577.057C415.095 577.009 414.617 577.081 414.545 577.294Z" fill="black"/>
<path d="M421.267 577.229C421.148 577.395 427.716 589.057 428.289 589.674C428.48 589.912 429.961 587.584 429.937 587.038C429.937 586.824 428.671 584.497 427.143 581.884L424.324 577.134L422.868 577.063C422.055 577.015 421.339 577.086 421.267 577.229Z" fill="black"/>
<path d="M437.686 577.199C437.447 577.366 434.939 581.38 430.807 588.22L428.992 591.236L429.04 595.82L429.112 600.404H430.664H432.217L432.336 595.749L432.455 591.118L435.895 585.417C437.806 582.306 439.669 579.266 440.027 578.696C441.006 577.152 440.935 577.009 439.334 577.009C438.57 577.009 437.83 577.104 437.686 577.199Z" fill="black"/>
<path d="M459.221 577.296C459.15 577.463 459.126 582.735 459.15 589.006L459.221 600.406L465.67 600.477C469.229 600.501 472.358 600.477 472.668 600.406C472.955 600.335 473.194 600.121 473.194 599.931C473.194 599.622 472.453 599.575 468.202 599.575C465.455 599.575 463.043 599.504 462.828 599.432C462.493 599.314 462.446 598.601 462.446 593.97V588.649H466.984C471.355 588.649 471.522 588.626 471.522 588.174C471.522 587.723 471.331 587.699 467.055 587.652L462.565 587.581V582.83V578.08L467.891 578.009C472.812 577.961 473.218 577.914 473.146 577.534C473.074 577.154 472.501 577.13 466.196 577.059C460.822 577.011 459.293 577.059 459.221 577.296Z" fill="black"/>
<path d="M477.246 589.006V601H477.963H478.679V591.001V581.025L487.54 591.001C494.61 598.981 496.521 601 496.975 601H497.548V589.006V577.011H496.832H496.115L496.067 586.156L495.996 595.323L487.803 586.156L479.635 577.011H478.44H477.246V589.006Z" fill="black"/>
<path d="M517.026 577.293C516.954 577.46 516.93 582.732 516.954 589.003L517.026 600.403L523.69 600.475C530.186 600.522 530.998 600.451 530.998 599.786C530.998 599.667 528.753 599.572 526.007 599.572C523.26 599.572 520.847 599.501 520.633 599.43C520.298 599.311 520.25 598.598 520.25 593.967V588.646H524.788C529.159 588.646 529.327 588.623 529.327 588.171C529.327 587.72 529.135 587.696 524.86 587.649L520.37 587.578V582.827V578.077L525.696 578.006C528.61 577.982 530.998 577.863 530.998 577.768C530.998 577.08 530.282 577.008 523.785 577.008C518.674 577.008 517.098 577.08 517.026 577.293Z" fill="black"/>
<path d="M391.549 590.12L391.621 600.404H393.173H394.726L394.797 593.516L394.845 586.629L393.364 583.256C392.528 581.403 391.788 579.86 391.668 579.86C391.573 579.86 391.525 584.491 391.549 590.12Z" fill="black"/>
<path d="M409.567 582.781C408.922 584.23 406.964 588.672 405.22 592.614C403.453 596.557 402.02 599.953 402.02 600.143C402.02 600.452 402.306 600.523 403.453 600.523C404.671 600.523 404.933 600.452 405.22 599.977C405.411 599.692 406.82 596.652 408.325 593.232L411.096 587.009V583.541C411.096 581.641 411.024 580.097 410.929 580.097C410.809 580.097 410.212 581.309 409.567 582.781Z" fill="black"/>
<path d="M271.065 79L343.039 431.266L428.308 79H530.998V86.495H489.28V556.638H530.998V564.133H391.175V556.638H432.434V86.495L315.533 569.584H311.407L213.76 86.495V556.638H256.853V564.133H167V556.638H208.718V86.495H167V79H271.065Z" fill="black"/>
</svg>
