<svg width="108" height="134" viewBox="0 0 108 134" fill="none" xmlns="http://www.w3.org/2000/svg">
<g filter="url(#filter0_d_664_4356)">
<path d="M4 125.023V121.325C8.54344 120.668 11.4691 118.313 12.7771 114.259C13.524 112.123 13.8969 108.315 13.8969 102.838V3.99604H5.11982V0.297852H37.0534L54.0465 80.2431L70.1068 0.297852H104V3.99604H95.0359V121.325H104V125.023H64.9713V121.325H74.3083V5.06323L50.4049 125.023H44.8965L19.6863 5.22779V101.442C19.6863 109.822 20.5726 115.176 22.3475 117.504C24.1213 119.833 27.3734 121.106 32.1049 121.325V125.023H4Z" fill="white"/>
</g>
<path d="M15.3168 126.25C14.7679 126.405 14.4669 126.836 14.5289 127.373C14.5809 127.809 14.8487 128.068 15.6742 128.495C16.4664 128.906 16.7575 129.17 16.7575 129.485C16.7575 129.698 16.5716 129.983 16.3469 130.121C16.1754 130.227 16.109 130.243 15.8313 130.239C15.3732 130.234 15.0014 130.054 14.6672 129.674C14.5809 129.572 14.5532 129.564 14.4913 129.606C14.3718 129.694 14.4094 129.782 14.6573 129.992C15.0202 130.298 15.35 130.415 15.8745 130.419C16.2518 130.419 16.3326 130.407 16.5428 130.31C17.0053 130.096 17.2443 129.749 17.2543 129.27C17.2587 129.053 17.2344 128.952 17.1293 128.768C16.9909 128.517 16.7862 128.357 16.2086 128.051C15.2304 127.536 14.9914 127.322 14.9914 126.978C14.9914 126.891 15.0346 126.756 15.0877 126.681C15.3732 126.27 16.0415 126.283 16.5472 126.719C16.7342 126.878 16.7431 126.882 16.8194 126.807C16.8958 126.736 16.8914 126.723 16.7198 126.576C16.6236 126.492 16.4377 126.383 16.3038 126.334C16.046 126.232 15.5314 126.191 15.3168 126.25Z" fill="white"/>
<path d="M26.8089 126.268C26.2269 126.461 25.9547 126.965 26.1118 127.551C26.1926 127.84 26.5179 128.129 27.1376 128.452C28.0881 128.946 28.2884 129.135 28.2784 129.508C28.264 129.952 27.8867 130.249 27.3478 130.237C26.9705 130.229 26.685 130.107 26.3508 129.805C26.083 129.566 26.0786 129.563 25.9978 129.641C25.9159 129.721 25.9215 129.734 26.1406 129.939C26.2789 130.069 26.4836 130.199 26.6794 130.283C26.9616 130.405 27.038 130.418 27.4241 130.418C27.7959 130.418 27.8867 130.4 28.0969 130.304C28.2308 130.245 28.3979 130.136 28.4698 130.061C28.7177 129.805 28.7553 129.692 28.7608 129.269C28.7608 128.632 28.6502 128.519 27.3721 127.844C27.0324 127.664 26.6983 127.409 26.6086 127.254C26.498 127.065 26.5223 126.805 26.6651 126.641C26.9904 126.265 27.5669 126.29 28.0825 126.709C28.2828 126.872 28.2972 126.876 28.3736 126.801C28.4499 126.73 28.4411 126.717 28.254 126.57C28.15 126.483 27.9586 126.378 27.8391 126.332C27.5437 126.219 27.0523 126.189 26.8089 126.268Z" fill="white"/>
<path d="M4.77177 126.272C4.743 126.302 4.80939 126.457 5.09599 126.998C5.18672 127.169 5.25754 127.316 5.25754 127.329C5.25754 127.338 5.31508 127.454 5.38258 127.584C5.50098 127.807 5.56848 127.949 5.74995 128.306C5.78757 128.384 5.86835 128.544 5.92589 128.661C5.98786 128.775 6.11732 129.03 6.21691 129.223L6.39395 129.576L6.54666 129.286C6.62743 129.127 6.69936 128.968 6.70379 128.926C6.70821 128.863 5.71122 126.838 5.47221 126.441C5.37705 126.277 5.37262 126.272 5.08603 126.26C4.9289 126.252 4.78505 126.26 4.77177 126.272Z" fill="white"/>
<path d="M8.8129 126.305C8.79852 126.334 8.79409 127.264 8.79852 128.371L8.8129 130.382H9.43367V126.275L9.13269 126.263C8.92356 126.255 8.82729 126.267 8.8129 126.305Z" fill="white"/>
<path d="M10.1526 126.293C10.1294 126.322 11.4418 128.379 11.5557 128.488C11.5945 128.53 11.8899 128.119 11.8855 128.023C11.8855 127.985 11.6321 127.575 11.3267 127.113L10.7635 126.275L10.4724 126.264C10.3109 126.255 10.167 126.267 10.1526 126.293Z" fill="white"/>
<path d="M13.4354 126.287C13.3878 126.317 12.8865 127.025 12.0611 128.232L11.6992 128.764L11.7081 129.572L11.7225 130.382H12.3432L12.3665 129.56L12.3908 128.743L13.078 127.737C13.4597 127.189 13.8315 126.652 13.9034 126.552C14.0993 126.279 14.0849 126.254 13.7651 126.254C13.6124 126.254 13.4641 126.27 13.4354 126.287Z" fill="white"/>
<path d="M17.7348 126.302C17.7204 126.331 17.716 127.261 17.7204 128.367L17.7348 130.379L19.0239 130.391C19.7343 130.395 20.3595 130.391 20.4215 130.379C20.479 130.366 20.5266 130.328 20.5266 130.295C20.5266 130.24 20.3783 130.232 19.5296 130.232C18.9807 130.232 18.4983 130.219 18.4551 130.206C18.3887 130.186 18.3788 130.06 18.3788 129.243V128.305H19.2861C20.1592 128.305 20.1924 128.3 20.1924 128.221C20.1924 128.141 20.1548 128.137 19.3005 128.128L18.4031 128.116V126.44L19.4676 126.427C20.4502 126.419 20.531 126.411 20.5177 126.344C20.5033 126.276 20.3883 126.272 19.129 126.26C18.0546 126.251 17.7492 126.26 17.7348 126.302Z" fill="white"/>
<path d="M21.3398 128.368V130.484H21.6264V126.96L23.3969 128.72C24.8099 130.128 25.1917 130.484 25.2824 130.484H25.3964V126.252H25.1098L25.101 127.865L25.0866 129.483L23.45 127.865L21.8179 126.252H21.3398V128.368Z" fill="white"/>
<path d="M29.2856 126.305C29.2712 126.334 29.2667 127.264 29.2712 128.37L29.2856 130.382L30.6167 130.394C31.9147 130.402 32.0774 130.389 32.0774 130.272C32.0774 130.251 31.6292 130.234 31.0804 130.234C30.5315 130.234 30.0491 130.222 30.0059 130.209C29.9395 130.189 29.9296 130.063 29.9296 129.246V128.307H30.8369C31.71 128.307 31.7432 128.303 31.7432 128.224C31.7432 128.144 31.7056 128.14 30.8513 128.131L29.9539 128.119V126.443L31.0184 126.43C31.6004 126.425 32.0774 126.405 32.0774 126.388C32.0774 126.267 31.9346 126.254 30.6366 126.254C29.6153 126.254 29.2999 126.267 29.2856 126.305Z" fill="white"/>
<path d="M4.21589 128.565L4.23027 130.38H4.85104L4.86542 129.165L4.87428 127.95L4.57883 127.355C4.41174 127.028 4.26347 126.755 4.24023 126.755C4.22142 126.755 4.21146 127.573 4.21589 128.565Z" fill="white"/>
<path d="M7.8129 127.272C7.68454 127.527 7.29283 128.311 6.94427 129.006C6.59128 129.702 6.30469 130.301 6.30469 130.335C6.30469 130.389 6.36223 130.402 6.59128 130.402C6.83472 130.402 6.88673 130.389 6.94427 130.305C6.983 130.256 7.26406 129.719 7.56503 129.115L8.1183 128.018V127.405C8.1183 127.07 8.10392 126.798 8.08511 126.798C8.06076 126.798 7.94126 127.012 7.8129 127.272Z" fill="white"/>
<defs>
<filter id="filter0_d_664_4356" x="0" y="0.297852" width="108" height="132.725" filterUnits="userSpaceOnUse" color-interpolation-filters="sRGB">
<feFlood flood-opacity="0" result="BackgroundImageFix"/>
<feColorMatrix in="SourceAlpha" type="matrix" values="0 0 0 0 0 0 0 0 0 0 0 0 0 0 0 0 0 0 127 0" result="hardAlpha"/>
<feOffset dy="4"/>
<feGaussianBlur stdDeviation="2"/>
<feComposite in2="hardAlpha" operator="out"/>
<feColorMatrix type="matrix" values="0 0 0 0 0 0 0 0 0 0 0 0 0 0 0 0 0 0 0.25 0"/>
<feBlend mode="normal" in2="BackgroundImageFix" result="effect1_dropShadow_664_4356"/>
<feBlend mode="normal" in="SourceGraphic" in2="effect1_dropShadow_664_4356" result="shape"/>
</filter>
</defs>
</svg>
